<?xml version="1.0" standalone="no"?><svg xmlns="http://www.w3.org/2000/svg" viewBox="0 0 1440 320"><path fill="#f3f4f5" fill-opacity="1" d="M0,128L40,133.3C80,139,160,149,240,133.3C320,117,400,75,480,96C560,117,640,203,720,218.7C800,235,880,181,960,181.3C1040,181,1120,235,1200,224C1280,213,1360,139,1400,101.3L1440,64L1440,320L1400,320C1360,320,1280,320,1200,320C1120,320,1040,320,960,320C880,320,800,320,720,320C640,320,560,320,480,320C400,320,320,320,240,320C160,320,80,320,40,320L0,320Z"></path></svg>